<?xml version="1.0" encoding="UTF-8" standalone="no"?>
<!-- Created with Inkscape (http://www.inkscape.org/) -->

<svg
   width="42.607159mm"
   height="41.555038mm"
   viewBox="0 0 42.607159 41.555038"
   version="1.1"
   id="svg817"
   inkscape:version="1.1.1 (1:1.1+202109281949+c3084ef5ed)"
   sodipodi:docname="GitHub-Mark-Light-120px-plus.svg"
   xmlns:inkscape="http://www.inkscape.org/namespaces/inkscape"
   xmlns:sodipodi="http://sodipodi.sourceforge.net/DTD/sodipodi-0.dtd"
   xmlns="http://www.w3.org/2000/svg"
   xmlns:svg="http://www.w3.org/2000/svg">
  <sodipodi:namedview
     id="namedview819"
     pagecolor="#ffffff"
     bordercolor="#666666"
     borderopacity="1.0"
     inkscape:pageshadow="2"
     inkscape:pageopacity="0.0"
     inkscape:pagecheckerboard="0"
     inkscape:document-units="mm"
     showgrid="false"
     inkscape:zoom="0.59152637"
     inkscape:cx="73.538564"
     inkscape:cy="169.89944"
     inkscape:window-width="1528"
     inkscape:window-height="836"
     inkscape:window-x="72"
     inkscape:window-y="27"
     inkscape:window-maximized="1"
     inkscape:current-layer="layer1" />
  <defs
     id="defs814" />
  <g
     inkscape:label="Layer 1"
     inkscape:groupmode="layer"
     id="layer1"
     transform="translate(-85.438612,-103.93507)">
    <path
       d="m 106.74216,103.93507 c -11.764085,0 -21.303548,9.53735 -21.303548,21.30355 0,9.41211 6.104113,17.39759 14.568658,20.21452 1.06469,0.1972 1.45557,-0.46214 1.45557,-1.02482 0,-0.50765 -0.0198,-2.18616 -0.0289,-3.96628 -5.926671,1.2887 -7.177268,-2.51354 -7.177268,-2.51354 -0.969081,-2.46204 -2.365375,-3.11714 -2.365375,-3.11714 -1.93287,-1.32222 0.145697,-1.29505 0.145697,-1.29505 2.139244,0.15028 3.265664,2.19569 3.265664,2.19569 1.900061,3.25649 4.983692,2.31492 6.199362,1.77059 0.19156,-1.37654 0.7433,-2.31669 1.35255,-2.84868 -4.731807,-0.53834 -9.705973,-2.36538 -9.705973,-10.5283 0,-2.32551 0.832203,-4.22593 2.194983,-5.71782 -0.221192,-0.53693 -0.950383,-2.7037 0.206728,-5.6381 0,0 1.788936,-0.57221 5.859642,2.18404 1.69933,-0.47201 3.52178,-0.70873 5.33223,-0.71719 1.81046,0.008 3.63432,0.24518 5.33682,0.71719 4.06612,-2.75625 5.85259,-2.18404 5.85259,-2.18404 1.15958,2.9344 0.43039,5.10117 0.20919,5.6381 1.36596,1.49189 2.19217,3.39231 2.19217,5.71782 0,8.18268 -4.9837,9.98396 -9.7275,10.51136 0.76412,0.66111 1.44498,1.95757 1.44498,3.94512 0,2.85044 -0.0243,5.14456 -0.0243,5.84623 0,0.56727 0.38312,1.23155 1.46297,1.02235 8.46032,-2.8201 14.55667,-10.80276 14.55667,-20.21205 0,-11.7662 -9.53805,-21.30355 -21.30355,-21.30355"
       style="fill:#ffffff;fill-opacity:1;fill-rule:evenodd;stroke:none;stroke-width:0.352778"
       id="path200" />
  </g>
</svg>
