<?xml version="1.0" encoding="UTF-8" standalone="no"?>
<!-- Created with Inkscape (http://www.inkscape.org/) -->

<svg
   version="1.1"
   id="svg2"
   width="496.94073"
   height="178.79515"
   viewBox="0 0 496.94074 178.79515"
   sodipodi:docname="Portfolio-logo.svg"
   inkscape:version="1.1.1 (1:1.1+202109281949+c3084ef5ed)"
   xmlns:inkscape="http://www.inkscape.org/namespaces/inkscape"
   xmlns:sodipodi="http://sodipodi.sourceforge.net/DTD/sodipodi-0.dtd"
   xmlns="http://www.w3.org/2000/svg"
   xmlns:svg="http://www.w3.org/2000/svg">
  <defs
     id="defs6" />
  <sodipodi:namedview
     id="namedview4"
     pagecolor="#ffffff"
     bordercolor="#666666"
     borderopacity="1.0"
     inkscape:pageshadow="2"
     inkscape:pageopacity="0.0"
     inkscape:pagecheckerboard="0"
     showgrid="false"
     inkscape:zoom="0.61481481"
     inkscape:cx="444.03614"
     inkscape:cy="396.05422"
     inkscape:window-width="1528"
     inkscape:window-height="836"
     inkscape:window-x="72"
     inkscape:window-y="27"
     inkscape:window-maximized="1"
     inkscape:current-layer="g8" />
  <g
     inkscape:groupmode="layer"
     inkscape:label="Image"
     id="g8"
     transform="translate(-95.678081,-274.08731)">
    <path
       style="fill:#2867b2;fill-opacity:1;stroke-width:0.823956"
       d="m 272.01321,363.2176 c 0,-59.55501 0.26203,-89.48428 0.78032,-89.12713 0.51199,0.35281 0.78032,31.18526 0.78032,89.66485 0,58.83807 -0.26519,89.12714 -0.78032,89.12714 -0.51517,0 -0.78032,-30.46831 -0.78032,-89.66486 z m -99.2,68.21531 c -0.8223,-1.10475 -1.07093,-5.16228 -1.07093,-17.47756 0,-15.80612 0.0267,-16.0629 1.84215,-17.70197 1.41538,-1.27787 3.08764,-1.6632 7.21795,-1.6632 h 5.37579 v -3.01451 c 0,-4.1342 1.51436,-4.8158 10.69953,-4.8158 8.87208,0 11.14939,1.07632 11.14939,5.26954 v 2.56077 h 5.37579 c 4.13031,0 5.80256,0.38533 7.21794,1.6632 1.81695,1.64043 1.84216,1.88547 1.84216,17.90583 0,15.07429 -0.10896,16.33146 -1.5147,17.47754 -1.22625,0.99976 -5.85174,1.23492 -24.2894,1.23492 -20.23299,0 -22.89423,-0.16057 -23.84567,-1.43876 z m 32.0926,-39.01782 v -2.17508 h -8.19334 -8.19334 v 2.17508 2.17509 h 8.19334 8.19334 z m -68.66802,33.40651 c -14.48838,-0.85724 -28.15984,-4.2345 -36.719824,-9.07089 -4.472836,-2.52715 -4.332898,-1.59782 -3.090486,-20.52469 0.784985,-11.95844 1.80854,-17.73638 4.01507,-22.66509 1.63234,-3.64612 2.58323,-4.12509 21.26766,-10.71246 11.9721,-4.2209 12.92055,-4.25221 12.95499,-0.42772 0.0137,1.51284 4.15337,20.6875 5.9779,27.68874 0.66716,2.56005 1.4861,4.32187 1.81987,3.91515 0.33377,-0.40673 1.03102,-5.6944 1.54944,-11.75038 0.71099,-8.3057 0.72262,-11.4691 0.0473,-12.87603 -0.49242,-1.02584 -0.78585,-2.92246 -0.6521,-4.21472 0.22574,-2.18098 0.53779,-2.36847 4.34859,-2.61289 4.88159,-0.3131 5.50257,0.62891 4.29457,6.51481 -0.57665,2.80968 -0.51198,6.82955 0.23105,14.36242 0.56751,5.75338 1.20301,10.65157 1.41225,10.88485 0.64006,0.71365 5.30403,-18.1869 7.50438,-30.41122 0.49526,-2.75148 1.20321,-5.0027 1.57321,-5.0027 1.52656,0 28.61098,9.92663 30.16706,11.05644 1.76338,1.28032 3.66648,5.0927 4.57847,9.17185 l 0.53494,2.3926 h -5.87712 c -5.18428,0 -6.16014,0.26552 -8.27794,2.25242 -1.32045,1.23884 -2.40083,2.75446 -2.40083,3.36805 0,0.68298 -1.52527,1.34123 -3.933,1.69734 -5.32969,0.78829 -7.52748,2.04148 -9.35158,5.33226 -1.36808,2.46815 -1.54145,4.35753 -1.54145,16.79969 0,13.83882 -0.0225,14.02395 -1.75572,14.42093 -3.33029,0.76282 -18.94932,0.9868 -28.6767,0.41124 z m 193.179,-24.33717 c -4.51996,-1.24212 -7.89646,-4.52392 -9.53941,-9.27188 -1.27068,-3.67211 -1.43522,-6.94058 -1.43522,-28.50858 0,-13.39852 0.2832,-25.85249 0.62934,-27.67548 0.82364,-4.33802 5.36179,-9.89024 9.00639,-11.01893 6.5973,-2.04314 14.85199,-0.22315 18.23088,4.01953 3.59416,4.51295 4.03561,7.54854 4.36108,29.98895 0.1824,12.5763 -0.0287,23.8453 -0.51156,27.30312 -0.96666,6.92293 -3.52106,11.74682 -7.27093,13.73083 -3.44781,1.8242 -9.64643,2.48336 -13.47057,1.43244 z m 9.69335,-11.72994 c 0.9998,-1.11475 1.18093,-5.16782 1.18093,-26.42527 0,-23.47019 -0.097,-25.22807 -1.4865,-26.93998 -0.9919,-1.22205 -2.41987,-1.82698 -4.29174,-1.81809 -6.10267,0.029 -6.31669,0.98275 -6.31669,28.14895 0,13.0385 0.33411,24.03629 0.76896,25.31154 0.42294,1.24029 1.56415,2.62608 2.53604,3.07953 2.23502,1.04279 6.07027,0.35897 7.609,-1.35668 z m 141.63826,12.12835 c -0.85835,-0.22008 -2.32365,-0.58054 -3.25621,-0.80102 -2.66306,-0.62964 -6.58366,-4.78033 -8.1523,-8.63073 -1.28569,-3.15585 -1.43422,-6.17119 -1.44961,-29.42759 -0.0187,-28.13972 0.19446,-29.80575 4.44472,-34.7533 2.60942,-3.03752 6.47728,-4.44145 12.07436,-4.38266 5.96996,0.0627 10.47881,2.83939 13.10608,8.07113 1.94757,3.87826 1.96221,4.06896 2.20143,28.69032 0.15992,16.45932 -0.0564,26.10469 -0.64392,28.71112 -1.10655,4.90905 -4.13247,9.42018 -7.30788,10.89481 -2.85,1.32351 -8.78401,2.20038 -11.01667,1.62792 z m 7.82566,-12.81267 c 1.75238,-2.78952 1.69275,-49.77787 -0.0667,-52.57868 -1.68039,-2.67492 -7.26201,-2.73157 -9.39372,-0.0953 -1.40152,1.73321 -1.47251,3.26219 -1.24189,26.74605 0.20571,20.94717 0.4358,25.14331 1.44705,26.38919 2.24618,2.76737 7.38804,2.51114 9.25528,-0.46122 z m 86.5929,12.9042 c -0.42922,-0.15478 -2.08681,-0.52482 -3.68356,-0.82231 -3.70086,-0.68948 -7.45481,-4.2071 -9.28561,-8.70097 -1.28792,-3.16133 -1.43419,-6.18804 -1.44961,-29.99499 -0.0162,-25.12637 0.0664,-26.67127 1.61845,-30.24598 2.38647,-5.49657 7.05631,-8.3292 13.84218,-8.39635 8.61566,-0.0853 13.6819,3.98296 15.78027,12.67171 0.5147,2.13119 0.733,12.74094 0.58359,28.3622 -0.23728,24.80654 -0.25058,24.9809 -2.19937,28.86153 -1.24285,2.47503 -3.09954,4.58605 -5.07201,5.76688 -2.94191,1.76118 -8.42819,3.11363 -10.13433,2.49828 z m 6.72246,-14.17278 c 0.44652,-1.30933 0.66441,-12.17283 0.52954,-26.39954 -0.25582,-26.98669 -0.24419,-26.93061 -5.61702,-27.10041 -1.97384,-0.0624 -3.37268,0.50208 -4.57946,1.8479 -1.71472,1.91237 -1.73745,2.26058 -1.73745,26.61812 0,22.81382 0.10944,24.8152 1.44703,26.46279 2.75068,3.38809 8.6011,2.54857 9.95736,-1.42886 z M 280.59671,363.18738 V 324.8243 l 11.11954,0.29909 c 13.31267,0.35807 15.45987,1.30215 18.52254,8.14398 1.73778,3.88212 1.93761,5.38444 1.91056,14.36366 -0.0271,8.98588 -0.22876,10.42459 -1.94077,13.84346 -2.77961,5.5509 -5.2782,7.2785 -11.06882,7.65335 -9.2721,0.60024 -8.39891,-1.14413 -8.39891,16.77857 v 15.64404 h -5.07207 -5.07207 z m 20.15147,-5.48183 c 1.71521,-1.91055 2.26339,-16.4055 0.74237,-19.63009 -1.09773,-2.32722 -5.86291,-3.97054 -8.99398,-3.10165 -1.71096,0.47479 -1.75572,0.78256 -1.75572,12.07109 0,6.37113 0.26335,11.88268 0.58524,12.2479 0.99939,1.13392 8.04463,-0.0529 9.42209,-1.58725 z m 57.88038,5.50072 v -38.34418 l 11.65063,0.28019 c 10.31934,0.24818 11.89652,0.48518 13.80244,2.07402 4.50675,3.757 5.29257,5.86702 5.62534,15.10466 0.35716,9.9145 -0.47216,13.61116 -3.88918,17.33603 l -2.3744,2.58832 1.96231,1.43358 c 3.36397,2.45758 4.43181,7.09273 4.46958,19.40095 0.0187,6.09143 0.32543,12.75602 0.68165,14.81021 l 0.64767,3.73489 -5.16849,-0.25475 -5.16848,-0.25476 -0.4013,-13.92054 c -0.25226,-8.75061 -0.76434,-14.63659 -1.37883,-15.84858 -0.5666,-1.11752 -2.30876,-2.32769 -4.14429,-2.87878 -5.97936,-1.79519 -5.75482,-2.4077 -5.99229,16.34603 l -0.21193,16.73689 h -5.05522 -5.05521 z m 19.50795,-7.76762 c 1.32539,-1.47776 1.56065,-2.90011 1.56065,-9.43553 0,-9.23471 -0.87105,-10.63363 -6.76408,-10.86332 l -3.77022,-0.14695 -0.2184,11.09293 -0.21839,11.09294 h 3.9249 c 2.88449,0 4.33861,-0.46127 5.48554,-1.74007 z m 28.68598,12.833 -0.20435,-33.2788 -5.69521,-0.25648 -5.6952,-0.25648 0.23297,-4.96372 0.23298,-4.96373 16.19161,-0.23516 16.19161,-0.23516 v 5.1981 5.19811 l -5.26715,0.25726 -5.26715,0.25726 -0.20435,33.2788 -0.20436,33.2788 h -5.05352 -5.05352 z m 27.68392,-5.2202 0.2032,-38.49901 13.85065,-0.23758 13.85065,-0.23759 v 5.21178 5.21179 l -8.77858,0.24601 -8.77858,0.246 v 10.87543 10.87542 l 6.82778,0.25138 6.82779,0.25139 v 5.18632 5.18633 h -7.02286 -7.02287 v 16.96567 16.96566 h -5.08019 -5.08018 z m 73.68319,37.91897 c -0.28612,-0.319 -0.52021,-17.74143 -0.52021,-38.71651 v -38.13649 h 5.0628 5.06279 l 0.20436,33.2788 0.20435,33.27881 8.77858,0.246 8.77858,0.246 v 5.19171 5.19171 h -13.52551 c -7.43905,0 -13.75963,-0.26101 -14.04574,-0.58003 z m 33.8138,-38.13648 v -38.71652 h 5.07207 5.07207 v 38.71652 38.71651 h -5.07207 -5.07207 z M 140.39879,344.31099 c -16.14864,-6.43527 -21.10951,-28.20101 -9.62181,-42.21554 9.32117,-11.37144 23.54882,-11.88645 33.42158,-1.20981 4.77001,5.15839 6.55147,9.44738 6.98291,16.81177 0.46382,7.91734 -1.15856,13.5938 -5.43253,19.00753 -6.33759,8.0277 -16.58024,11.10089 -25.35015,7.60605 z"
       id="path1502" />
  </g>
</svg>
