<?xml version="1.0" encoding="UTF-8" standalone="no"?>
<!-- Created with Inkscape (http://www.inkscape.org/) -->

<svg
   version="1.1"
   id="svg2"
   width="637.86658"
   height="205.50363"
   viewBox="0 0 637.86658 205.50363"
   sodipodi:docname="Portfolio-logo.svg"
   inkscape:version="1.1.1 (1:1.1+202109281949+c3084ef5ed)"
   xmlns:inkscape="http://www.inkscape.org/namespaces/inkscape"
   xmlns:sodipodi="http://sodipodi.sourceforge.net/DTD/sodipodi-0.dtd"
   xmlns="http://www.w3.org/2000/svg"
   xmlns:svg="http://www.w3.org/2000/svg">
  <defs
     id="defs6" />
  <sodipodi:namedview
     id="namedview4"
     pagecolor="#ffffff"
     bordercolor="#666666"
     borderopacity="1.0"
     inkscape:pageshadow="2"
     inkscape:pageopacity="0.0"
     inkscape:pagecheckerboard="0"
     showgrid="false"
     inkscape:zoom="0.61481481"
     inkscape:cx="338.31325"
     inkscape:cy="391.1747"
     inkscape:window-width="1528"
     inkscape:window-height="836"
     inkscape:window-x="72"
     inkscape:window-y="27"
     inkscape:window-maximized="1"
     inkscape:current-layer="g8" />
  <g
     inkscape:groupmode="layer"
     inkscape:label="Image"
     id="g8"
     transform="translate(-201.89347,-278.30978)">
    <path
       style="fill:#2867b2;fill-opacity:1"
       d="m 729.33199,380.31341 c 2.3e-4,-24.75 0.13032,-34.73177 0.28909,-22.18172 0.15877,12.55005 0.15859,32.80005 -4e-4,45 -0.159,12.19995 -0.2889,1.93172 -0.28869,-22.81828 z m -149.38117,36.91667 c 0.048,-1.16495 0.28494,-1.4019 0.60416,-0.60417 0.28886,0.72187 0.25334,1.58438 -0.0789,1.91667 -0.33229,0.33229 -0.56864,-0.25834 -0.52522,-1.3125 z M 438.32386,372.81341 c 0,-20.075 0.13345,-28.2875 0.29656,-18.25 0.16311,10.0375 0.16311,26.4625 0,36.5 -0.16311,10.0375 -0.29656,1.825 -0.29656,-18.25 z m 253.94256,20.5 c 0.002,-7.7 0.15853,-10.71781 0.34883,-6.70625 0.1903,4.01156 0.18902,10.31156 -0.003,14 -0.19169,3.68844 -0.34739,0.40625 -0.34583,-7.29375 z m 146.68439,11.91667 c 0.048,-1.16495 0.28494,-1.4019 0.60416,-0.60417 0.28887,0.72187 0.25335,1.58438 -0.0789,1.91667 -0.33229,0.33229 -0.56864,-0.25834 -0.52522,-1.3125 z M 486.30756,380.31341 c 5.8e-4,-14.3 0.14103,-20.01094 0.31211,-12.69097 0.17108,7.31996 0.17062,19.01996 -10e-4,26 -0.17165,6.98003 -0.31164,0.99097 -0.31106,-13.30903 z m 42.99896,0.5 c 0,-14.025 0.14066,-19.7625 0.31255,-12.75 0.1719,7.0125 0.1719,18.4875 0,25.5 -0.1719,7.0125 -0.31255,1.275 -0.31255,-12.75 z m 309.9599,-11.5 c 0.002,-7.7 0.15853,-10.71781 0.34883,-6.70625 0.1903,4.01156 0.18902,10.31156 -0.003,14 -0.19169,3.68844 -0.34739,0.40625 -0.34583,-7.29375 z m -265.39456,8.12244 c 0,-0.20765 0.7875,-0.99515 1.75,-1.75 1.58606,-1.24387 1.62143,-1.2085 0.37756,0.37756 -1.30637,1.66575 -2.12756,2.19548 -2.12756,1.37244 z m -93.67993,-14.62244 c 0,-3.575 0.18151,-5.0375 0.40333,-3.25 0.22182,1.7875 0.22182,4.7125 0,6.5 -0.22182,1.7875 -0.40333,0.325 -0.40333,-3.25 z m 84.9898,-1.5 c 0.006,-3.3 0.19231,-4.52944 0.41486,-2.73209 0.22257,1.79735 0.21798,4.49735 -0.0102,6 -0.22818,1.50265 -0.41027,0.0321 -0.40466,-3.26791 z m 154.76909,-7.08333 c 0.048,-1.16495 0.28494,-1.4019 0.60416,-0.60417 0.28886,0.72187 0.25334,1.58438 -0.0789,1.91667 -0.33229,0.33229 -0.56864,-0.25834 -0.52522,-1.3125 z"
       id="path1514" />
    <path
       style="fill:#2867b2;fill-opacity:1"
       d="m 251.68437,453.1303 c 0.72187,-0.28887 1.58438,-0.25335 1.91667,0.0789 0.33229,0.33229 -0.25834,0.56864 -1.3125,0.52522 -1.16495,-0.048 -1.40191,-0.28494 -0.60417,-0.60416 z m 33,0 c 0.72187,-0.28887 1.58438,-0.25335 1.91667,0.0789 0.33229,0.33229 -0.25834,0.56864 -1.3125,0.52522 -1.16495,-0.048 -1.40191,-0.28494 -0.60417,-0.60416 z m 253.5237,-35.31689 c 0,-4.125 0.17652,-5.8125 0.39226,-3.75 0.21574,2.0625 0.21574,5.4375 0,7.5 -0.21574,2.0625 -0.39226,0.375 -0.39226,-3.75 z m 76.11798,-31 c 0,-21.175 0.13253,-29.8375 0.2945,-19.25 0.16197,10.5875 0.16197,27.9125 0,38.5 -0.16197,10.5875 -0.2945,1.925 -0.2945,-19.25 z m 20.99946,0.5 c -2.8e-4,-20.9 0.13234,-29.59212 0.29473,-19.31582 0.1624,10.2763 0.16264,27.3763 5.4e-4,38 -0.1621,10.6237 -0.29497,2.21582 -0.29527,-18.68418 z m -433.37469,29.91667 c 0.048,-1.16495 0.28494,-1.4019 0.60416,-0.60417 0.28887,0.72187 0.25335,1.58438 -0.0789,1.91667 -0.33231,0.33229 -0.56864,-0.25834 -0.52522,-1.3125 z m 115.07894,-3.41667 c 0,-1.375 0.22698,-1.9375 0.50439,-1.25 0.2774,0.6875 0.2774,1.8125 0,2.5 -0.27741,0.6875 -0.50439,0.125 -0.50439,-1.25 z m 402.92106,-8.58333 c 0.048,-1.16495 0.28494,-1.4019 0.60416,-0.60417 0.28886,0.72187 0.25334,1.58438 -0.0789,1.91667 -0.33229,0.33229 -0.56864,-0.25834 -0.52522,-1.3125 z m 119.29511,-11.91667 c 0.002,-6.05 0.16696,-8.39607 0.36601,-5.21349 0.19905,3.18258 0.1972,8.13258 -0.004,11 -0.20131,2.86742 -0.36417,0.26349 -0.36191,-5.78651 z m -264.50163,-11.25 c -1.24387,-1.58606 -1.2085,-1.62143 0.37756,-0.37756 1.66575,1.30637 2.19548,2.12756 1.37244,2.12756 -0.20765,0 -0.99515,-0.7875 -1.75,-1.75 z m 212.55763,-23.25 c 0,-12.925 0.14251,-18.2125 0.3167,-11.75 0.17418,6.4625 0.17418,17.0375 0,23.5 -0.17419,6.4625 -0.3167,1.175 -0.3167,-11.75 z m -67.04471,9 c 0,-6.875 0.15977,-9.6875 0.35504,-6.25 0.19528,3.4375 0.19528,9.0625 0,12.5 -0.19527,3.4375 -0.35504,0.625 -0.35504,-6.25 z m -452.63535,-6.66228 c 0.6875,-0.27741 1.8125,-0.27741 2.5,0 0.6875,0.27741 0.125,0.50439 -1.25,0.50439 -1.375,0 -1.9375,-0.22698 -1.25,-0.50439 z m 317.55986,-18.83772 c 0.006,-3.3 0.19231,-4.52944 0.41486,-2.73209 0.22257,1.79735 0.21798,4.49735 -0.0102,6 -0.22818,1.50265 -0.41027,0.0321 -0.40466,-3.26791 z M 237.95082,328.23008 c 0.048,-1.16495 0.28494,-1.4019 0.60416,-0.60417 0.28886,0.72187 0.25335,1.58438 -0.0789,1.91667 -0.33229,0.33229 -0.56864,-0.25834 -0.52522,-1.3125 z"
       id="path1512" />
    <path
       style="fill:#2867b2;fill-opacity:1"
       d="m 552.28869,406.31341 c 9.6e-4,-10.45 0.14915,-14.58913 0.3293,-9.19806 0.18015,5.39107 0.17936,13.94107 -0.002,19 -0.18111,5.05893 -0.32851,0.64806 -0.32754,-9.80194 z m 47.85553,14.5 c 0,-2.475 0.19502,-3.4875 0.43337,-2.25 0.23836,1.2375 0.23836,3.2625 0,4.5 -0.23835,1.2375 -0.43337,0.225 -0.43337,-2.25 z m 173.1772,-30 c 0,-18.975 0.13447,-26.7375 0.29883,-17.25 0.16436,9.4875 0.16436,25.0125 0,34.5 -0.16436,9.4875 -0.29883,1.725 -0.29883,-17.25 z m 13.9752,12 c 0,-11.825 0.14466,-16.6625 0.32145,-10.75 0.1768,5.9125 0.1768,15.5875 0,21.5 -0.17679,5.9125 -0.32145,1.075 -0.32145,-10.75 z m -248.97164,-29 c 0,-20.625 0.13297,-29.0625 0.2955,-18.75 0.16253,10.3125 0.16253,27.1875 0,37.5 -0.16253,10.3125 -0.2955,1.875 -0.2955,-18.75 z m 167.97164,11 c 0,-11.825 0.14466,-16.6625 0.32145,-10.75 0.1768,5.9125 0.1768,15.5875 0,21.5 -0.17679,5.9125 -0.32145,1.075 -0.32145,-10.75 z m 13.9606,7 c 0,-6.875 0.15977,-9.6875 0.35504,-6.25 0.19528,3.4375 0.19528,9.0625 0,12.5 -0.19527,3.4375 -0.35504,0.625 -0.35504,-6.25 z m -168,-30 c 0,-6.875 0.15977,-9.6875 0.35504,-6.25 0.19528,3.4375 0.19528,9.0625 0,12.5 -0.19527,3.4375 -0.35504,0.625 -0.35504,-6.25 z m 96.9696,-3.5 c -0.003,-4.95 0.16605,-7.10108 0.37577,-4.78017 0.20972,2.3209 0.21222,6.3709 0.006,9 -0.20667,2.62909 -0.37827,0.73017 -0.38131,-4.21983 z m -14.02682,-15 c 0.004,-3.85 0.18518,-5.30246 0.40166,-3.2277 0.21647,2.07477 0.21284,5.22477 -0.008,7 -0.22091,1.77524 -0.39803,0.0777 -0.39359,-3.7723 z m 36.98173,-1 c 0.006,-3.3 0.1923,-4.52944 0.41486,-2.73209 0.22256,1.79735 0.21797,4.49735 -0.0102,6 -0.22818,1.50265 -0.41027,0.0321 -0.40466,-3.26791 z"
       id="path1510" />
    <path
       style="fill:#2867b2;fill-opacity:1"
       d="m 254.62187,453.15113 c 0.6875,-0.27741 1.8125,-0.27741 2.5,0 0.6875,0.27741 0.125,0.50439 -1.25,0.50439 -1.375,0 -1.9375,-0.22698 -1.25,-0.50439 z m 26,0 c 0.6875,-0.27741 1.8125,-0.27741 2.5,0 0.6875,0.27741 0.125,0.50439 -1.25,0.50439 -1.375,0 -1.9375,-0.22698 -1.25,-0.50439 z m -78.55505,-30.83772 c 0.0204,-1.65 0.24449,-2.20394 0.49804,-1.23097 0.25353,0.97297 0.23687,2.32297 -0.0371,3 -0.27394,0.67703 -0.48138,-0.11903 -0.461,-1.76903 z m 447.22523,-17 c -8.9e-4,-11 0.14522,-15.63644 0.32467,-10.30319 0.17945,5.33324 0.18018,14.33324 0.002,20 -0.17857,5.66675 -0.3254,1.30319 -0.32628,-9.69681 z m -48.97128,-22 c 3.6e-4,-18.7 0.13526,-26.20869 0.29977,-16.68598 0.1645,9.52271 0.16421,24.82271 -6.7e-4,34 -0.16486,9.17729 -0.29947,1.38598 -0.2991,-17.31402 z m -279.36995,30.91667 c 0.048,-1.16495 0.28494,-1.4019 0.60416,-0.60417 0.28887,0.72187 0.25335,1.58438 -0.0789,1.91667 -0.33229,0.33229 -0.56864,-0.25834 -0.52522,-1.3125 z m 504.35229,-32.91667 c 6.6e-4,-13.2 0.14295,-18.46169 0.31621,-11.69265 0.17326,6.76904 0.17273,17.56904 -10e-4,24 -0.17391,6.43096 -0.31567,0.89265 -0.31502,-12.30735 z m -158.12138,-1 c 0.006,-3.3 0.19231,-4.52944 0.41486,-2.73209 0.22257,1.79735 0.21798,4.49735 -0.0102,6 -0.22818,1.50265 -0.41027,0.0321 -0.40466,-3.26791 z m -194.30986,4.12244 c 0,-0.20765 0.7875,-0.99515 1.75,-1.75 1.58605,-1.24387 1.62143,-1.2085 0.37756,0.37756 -1.30637,1.66575 -2.12756,2.19548 -2.12756,1.37244 z m 179.26902,-11.31543 c 0.97297,-0.25354 2.32297,-0.23687 3,0.0371 0.67703,0.27393 -0.11903,0.48137 -1.76903,0.46099 -1.65,-0.0204 -2.20394,-0.2445 -1.23097,-0.49804 z m -3.03703,-3.30701 c 0,-1.925 0.2058,-2.7125 0.45733,-1.75 0.25152,0.9625 0.25152,2.5375 0,3.5 -0.25153,0.9625 -0.45733,0.175 -0.45733,-1.75 z m 57.06766,-11 c 0,-3.025 0.18747,-4.2625 0.4166,-2.75 0.22913,1.5125 0.22913,3.9875 0,5.5 -0.22912,1.5125 -0.4166,0.275 -0.4166,-2.75 z m 37.0857,-11 c 0,-6.875 0.15977,-9.6875 0.35504,-6.25 0.19528,3.4375 0.19528,9.0625 0,12.5 -0.19527,3.4375 -0.35504,0.625 -0.35504,-6.25 z m 29.98871,-1.5 c 0.002,-6.05 0.16696,-8.39607 0.36601,-5.21349 0.19905,3.18258 0.1972,8.13258 -0.004,11 -0.20131,2.86742 -0.36417,0.26349 -0.36191,-5.78651 z m -482.87406,5.5 c 0.99549,-1.1 2.03498,-2 2.30997,-2 0.275,0 -0.31448,0.9 -1.30997,2 -0.9955,1.1 -2.03499,2 -2.30998,2 -0.275,0 0.31448,-0.9 1.30998,-2 z m 8.57895,-23.58333 c 0.048,-1.16495 0.28494,-1.4019 0.60416,-0.60417 0.28886,0.72187 0.25335,1.58438 -0.0789,1.91667 -0.33229,0.33229 -0.56864,-0.25834 -0.52522,-1.3125 z"
       id="path1508" />
    <path
       style="fill:#2867b2;fill-opacity:1"
       d="m 766.05211,418.59724 -0.18025,-5.71617 -10.75,-0.32145 -10.75,-0.32145 10.78138,-0.21238 c 12.19211,-0.24017 12.06152,-0.32468 11.45868,7.41468 l -0.37956,4.87294 z m -199.9853,-1.28383 c 0.0204,-1.65 0.2445,-2.20394 0.49804,-1.23097 0.25354,0.97297 0.23687,2.32297 -0.0371,3 -0.27393,0.67703 -0.48137,-0.11903 -0.46099,-1.76903 z m -113.80039,-14 c 0.002,-7.7 0.15853,-10.71781 0.34883,-6.70625 0.1903,4.01156 0.18903,10.31156 -0.003,14 -0.19169,3.68844 -0.34739,0.40625 -0.34583,-7.29375 z m 291.04218,-17.5 c 0,-14.575 0.1398,-20.5375 0.31066,-13.25 0.17086,7.2875 0.17086,19.2125 0,26.5 -0.17086,7.2875 -0.31066,1.325 -0.31066,-13.25 z m -243.00319,-3.5 c -6.1e-4,-13.75 0.14023,-19.5137 0.31299,-12.80822 0.17274,6.70549 0.17325,17.95549 9.9e-4,25 -0.17214,7.04452 -0.31348,1.55822 -0.31408,-12.19178 z m 15.00319,-1.5 c 0,-14.575 0.1398,-20.5375 0.31066,-13.25 0.17086,7.2875 0.17086,19.2125 0,26.5 -0.17086,7.2875 -0.31066,1.325 -0.31066,-13.25 z m 162.98184,6 c 0,-10.725 0.14711,-15.1125 0.32692,-9.75 0.17981,5.3625 0.17981,14.1375 0,19.5 -0.17981,5.3625 -0.32692,0.975 -0.32692,-9.75 z m -226.02685,-24 c 0,-7.425 0.15742,-10.4625 0.34983,-6.75 0.19241,3.7125 0.19241,9.7875 0,13.5 -0.19241,3.7125 -0.34983,0.675 -0.34983,-6.75 z m 206.37618,10.27527 c 1.79736,-0.22256 4.49735,-0.21797 6,0.0102 1.50265,0.22818 0.0321,0.41027 -3.26791,0.40466 -3.3,-0.006 -4.52944,-0.1923 -2.73209,-0.41486 z m -192.4251,-10.77527 c 0.004,-4.4 0.17944,-6.07561 0.39069,-3.72357 0.21124,2.35204 0.20828,5.95204 -0.007,8 -0.21487,2.04796 -0.38771,0.12357 -0.38407,-4.27643 z m 112.9432,-3 c 0.008,-2.75 0.20173,-3.75631 0.43157,-2.23625 0.22986,1.52006 0.22371,3.77006 -0.0136,5 -0.23736,1.22994 -0.42542,-0.0137 -0.41792,-2.76375 z m 245.87188,-3.5 c 0,-1.375 0.22698,-1.9375 0.50439,-1.25 0.27741,0.6875 0.27741,1.8125 0,2.5 -0.27741,0.6875 -0.50439,0.125 -0.50439,-1.25 z m -325.07894,-0.58333 c 0.048,-1.16495 0.28494,-1.4019 0.60416,-0.60417 0.28887,0.72187 0.25335,1.58438 -0.0789,1.91667 -0.33228,0.33229 -0.56863,-0.25834 -0.52522,-1.3125 z m 178,0 c 0.048,-1.16495 0.28494,-1.4019 0.60416,-0.60417 0.28887,0.72187 0.25335,1.58438 -0.0789,1.91667 -0.33229,0.33229 -0.56864,-0.25834 -0.52522,-1.3125 z m -49.76908,-12.91667 c 0.006,-3.3 0.19231,-4.52944 0.41486,-2.73209 0.22257,1.79735 0.21798,4.49735 -0.0102,6 -0.22818,1.50265 -0.41027,0.0321 -0.40466,-3.26791 z m -106.43742,-2.25 c -1.24387,-1.58606 -1.2085,-1.62143 0.37756,-0.37756 1.66575,1.30637 2.19548,2.12756 1.37244,2.12756 -0.20765,0 -0.99515,-0.7875 -1.75,-1.75 z m -76.58593,-3.99008 c 3.18258,-0.19905 8.13258,-0.1972 11,0.004 2.86742,0.20131 0.26349,0.36417 -5.78651,0.36191 -6.05,-0.002 -8.39607,-0.16696 -5.21349,-0.36601 z m 61.46349,-0.9222 c 0.6875,-0.27741 1.8125,-0.27741 2.5,0 0.6875,0.27741 0.125,0.50439 -1.25,0.50439 -1.375,0 -1.9375,-0.22698 -1.25,-0.50439 z"
       id="path1506" />
    <path
       style="fill:#2867b2;fill-opacity:1"
       d="m 427.35347,380.81341 c 0,-56.925 0.12069,-80.2125 0.26819,-51.75 0.14752,28.4625 0.14752,75.0375 0,103.5 -0.14751,28.4625 -0.26819,5.175 -0.26819,-51.75 z m -109.2316,80.25243 c 7.5625,-0.16988 19.9375,-0.16988 27.5,0 7.5625,0.16989 1.375,0.30888 -13.75,0.30888 -15.125,0 -21.3125,-0.13899 -13.75,-0.30888 z m -58.5,-7.95816 c 1.2375,-0.23836 3.26249,-0.23836 4.5,0 1.2375,0.23835 0.225,0.43337 -2.25,0.43337 -2.47501,0 -3.48751,-0.19502 -2.25,-0.43337 z m 13.51375,-0.0118 c 1.52006,-0.22986 3.77006,-0.22371 5,0.0136 1.22994,0.23736 -0.0138,0.42542 -2.76375,0.41792 -2.75,-0.008 -3.75631,-0.20172 -2.23625,-0.43157 z m 179.0086,-32.28247 c 0,-2.475 0.19502,-3.4875 0.43338,-2.25 0.23836,1.2375 0.23836,3.2625 0,4.5 -0.23836,1.2375 -0.43338,0.225 -0.43338,-2.25 z m 127.10581,-14 c 0,-6.325 0.16237,-8.9125 0.36082,-5.75 0.19845,3.1625 0.19845,8.3375 0,11.5 -0.19845,3.1625 -0.36082,0.575 -0.36082,-5.75 z m -13.00821,-2 c 0,-5.775 0.16528,-8.1375 0.36728,-5.25 0.202,2.8875 0.202,7.6125 0,10.5 -0.202,2.8875 -0.36728,0.525 -0.36728,-5.25 z m -259.10093,5.30701 c 0.97297,-0.25354 2.32297,-0.23687 3,0.0371 0.67703,0.27393 -0.11903,0.48137 -1.76902,0.46099 -1.65,-0.0204 -2.20394,-0.2445 -1.23098,-0.49804 z m 220.80992,-3.89034 c 0.048,-1.16495 0.28494,-1.4019 0.60416,-0.60417 0.28887,0.72187 0.25335,1.58438 -0.0789,1.91667 -0.33229,0.33229 -0.56864,-0.25834 -0.52522,-1.3125 z m 269.35877,-26.91667 c -5.4e-4,-14.85 0.13863,-21.0644 0.30926,-13.80979 0.17063,7.25462 0.17107,19.40462 9.8e-4,27 -0.17009,7.59539 -0.30971,1.65979 -0.31024,-13.19021 z m 12.99694,0.5 c 0,-14.025 0.14066,-19.7625 0.31255,-12.75 0.1719,7.0125 0.1719,18.4875 0,25.5 -0.1719,7.0125 -0.31255,1.275 -0.31255,-12.75 z m -354.67299,8.29274 c 1.24391,-0.23919 3.0439,-0.23011 4,0.0202 0.95609,0.25029 -0.0617,0.446 -2.26166,0.4349 -2.2,-0.0111 -2.98226,-0.21589 -1.73834,-0.45508 z m 98.50736,-1.98573 c 0.97298,-0.25354 2.32298,-0.23687 3,0.0371 0.67703,0.27393 -0.11902,0.48137 -1.76903,0.46099 -1.65,-0.0204 -2.20394,-0.2445 -1.23097,-0.49804 z m 137.11273,-18.80701 c 0.002,-6.6 0.16382,-9.16987 0.35965,-5.71081 0.19583,3.45905 0.19422,8.85905 -0.004,12 -0.19781,3.14094 -0.35803,0.31081 -0.35606,-6.28919 z m -236.63175,8.79427 c 1.2375,-0.23836 3.26249,-0.23836 4.5,0 1.2375,0.23835 0.225,0.43337 -2.25,0.43337 -2.47501,0 -3.48751,-0.19502 -2.25,-0.43337 z m 24.32894,-6.8776 c 0.048,-1.16495 0.28494,-1.4019 0.60416,-0.60417 0.28887,0.72187 0.25335,1.58438 -0.0789,1.91667 -0.33228,0.33229 -0.56863,-0.25834 -0.52522,-1.3125 z m 199.23092,-6.91667 c 0.006,-3.3 0.19231,-4.52944 0.41486,-2.73209 0.22257,1.79735 0.21798,4.49735 -0.0102,6 -0.22818,1.50265 -0.41027,0.0321 -0.40466,-3.26791 z m -199.23091,-7.08333 c 0.048,-1.16495 0.28494,-1.4019 0.60416,-0.60417 0.28887,0.72187 0.25335,1.58438 -0.0789,1.91667 -0.33229,0.33229 -0.56864,-0.25834 -0.52522,-1.3125 z m -23.80992,-7.10966 c 0.97297,-0.25354 2.32297,-0.23687 3,0.0371 0.67703,0.27393 -0.11903,0.48137 -1.76903,0.46099 -1.65,-0.0204 -2.20394,-0.2445 -1.23097,-0.49804 z m 98.98097,0.004 c 0.9625,-0.25152 2.5375,-0.25152 3.5,0 0.9625,0.25153 0.175,0.45733 -1.75,0.45733 -1.925,0 -2.7125,-0.2058 -1.75,-0.45733 z m 35.4777,-0.0324 c 1.77523,-0.22091 4.92523,-0.22454 7,-0.008 2.07476,0.21648 0.6223,0.39722 -3.2277,0.40166 -3.85,0.004 -5.54754,-0.17268 -3.7723,-0.39359 z m 28,0 c 1.77523,-0.22091 4.92523,-0.22454 7,-0.008 2.07476,0.21648 0.6223,0.39722 -3.2277,0.40166 -3.85,0.004 -5.54754,-0.17268 -3.7723,-0.39359 z m 37.5223,-0.0173 c 3.1625,-0.19845 8.3375,-0.19845 11.5,0 3.1625,0.19845 0.575,0.36082 -5.75,0.36082 -6.325,0 -8.9125,-0.16237 -5.75,-0.36082 z m -111,-12 c 3.1625,-0.19845 8.3375,-0.19845 11.5,0 3.1625,0.19845 0.575,0.36082 -5.75,0.36082 -6.325,0 -8.9125,-0.16237 -5.75,-0.36082 z m -254.3257,-27.01131 -2.4243,-2.75 2.75,2.42431 c 2.57029,2.26589 3.20859,3.07569 2.4243,3.07569 -0.17912,0 -1.41662,-1.2375 -2.75,-2.75 z m -42.4243,-0.25 c 0.99549,-1.1 2.03498,-2 2.30997,-2 0.275,0 -0.31448,0.9 -1.30997,2 -0.9955,1.1 -2.03499,2 -2.30998,2 -0.275,0 0.31448,-0.9 1.30998,-2 z"
       id="path1504" />
    <path
       style="fill:#ffffff;fill-opacity:1"
       d="m 427.87187,380.75439 c 0,-68.45136 0.3358,-102.85148 1,-102.44098 0.65613,0.40551 1,35.84372 1,103.05902 0,67.62732 -0.33984,102.44098 -1,102.44098 -0.6602,0 -1,-35.01967 -1,-103.05902 z M 300.7443,459.15972 c -1.05381,-1.26978 -1.37243,-5.93342 -1.37243,-20.08836 0,-18.16724 0.0342,-18.46239 2.36077,-20.3463 1.81385,-1.46876 3.95689,-1.91165 9.25,-1.91165 h 6.88923 v -3.46482 c 0,-4.75176 1.94069,-5.53518 13.71174,-5.53518 11.36983,0 14.28826,1.2371 14.28826,6.0567 v 2.9433 h 6.88922 c 5.29311,0 7.43615,0.44289 9.25,1.91165 2.32847,1.88548 2.36078,2.16712 2.36078,20.58061 0,17.32609 -0.13964,18.77106 -1.94113,20.08835 -1.57148,1.14909 -7.49917,1.41939 -31.12755,1.41939 -25.92914,0 -29.3396,-0.18456 -30.55889,-1.65369 z m 41.12757,-44.84631 v -2.5 h -10.5 -10.5 v 2.5 2.5 h 10.5 10.5 z m -88,38.39679 c -18.56726,-0.9853 -36.08761,-4.86706 -47.05748,-10.42591 -5.73206,-2.90466 -5.55273,-1.8365 -3.96054,-23.59068 1.00598,-13.74479 2.31769,-20.38584 5.14542,-26.0508 2.09189,-4.19078 3.31048,-4.7413 27.25511,-12.3127 15.34258,-4.85141 16.55804,-4.8874 16.60218,-0.49161 0.0175,1.73883 5.32265,23.7778 7.66084,31.82489 0.85498,2.94248 1.90449,4.96748 2.33222,4.5 0.42774,-0.46749 1.32128,-6.54503 1.98564,-13.50565 0.91116,-9.54641 0.92606,-13.18236 0.0606,-14.79946 -0.63104,-1.17908 -1.00708,-3.35902 -0.83567,-4.84432 0.28929,-2.50677 0.68918,-2.72227 5.57283,-3.0032 6.2559,-0.35987 7.0517,0.72286 5.50362,7.48799 -0.739,3.2294 -0.65612,7.84975 0.29609,16.50789 0.72728,6.61282 1.5417,12.2427 1.80984,12.51083 0.82025,0.82025 6.79726,-20.90367 9.61708,-34.95406 0.63468,-3.1625 1.54194,-5.75 2.01611,-5.75 1.95632,0 36.66576,11.40947 38.65993,12.70805 2.25982,1.47157 4.69869,5.85345 5.86744,10.54195 l 0.68553,2.75 h -7.53169 c -6.6438,0 -7.89439,0.30519 -10.60841,2.58889 -1.6922,1.4239 -3.07673,3.16592 -3.07673,3.87117 0,0.785 -1.95468,1.54158 -5.04025,1.95089 -6.83015,0.90605 -9.64668,2.34643 -11.98431,6.12879 -1.75324,2.83685 -1.97541,5.00846 -1.97541,19.30924 0,15.90607 -0.0289,16.11885 -2.25,16.57514 -4.26786,0.87676 -24.28409,1.1342 -36.75,0.47267 z m 247.56429,-27.97267 c -5.79245,-1.42767 -10.11953,-5.19971 -12.22501,-10.65692 -1.62841,-4.22065 -1.83928,-7.97737 -1.83928,-32.7672 0,-15.4 0.36293,-29.71435 0.80651,-31.80966 1.05553,-4.98603 6.8713,-11.36764 11.54195,-12.66494 8.45462,-2.34834 19.03324,-0.25648 23.36339,4.61997 4.60601,5.1871 5.17174,8.67615 5.58884,34.46871 0.23375,14.45495 -0.0368,27.40732 -0.65558,31.38167 -1.2388,7.95709 -4.51234,13.50156 -9.3179,15.78195 -4.41847,2.0967 -12.36217,2.85432 -17.26292,1.64642 z m 12.42231,-13.48216 c 1.28127,-1.28127 1.51339,-5.9398 1.51339,-30.37269 0,-26.97618 -0.1243,-28.99665 -1.90499,-30.96428 -1.27115,-1.40461 -3.10113,-2.0999 -5.49999,-2.08968 -7.82074,0.0333 -8.09501,1.12955 -8.09501,32.35385 0,14.9862 0.42817,27.62683 0.98545,29.09258 0.54201,1.42557 2.0045,3.01837 3.25,3.53956 2.86424,1.19856 7.77922,0.41259 9.75115,-1.55934 z m 181.51339,13.94009 c -1.1,-0.25296 -2.97782,-0.66727 -4.17293,-0.92069 -3.41278,-0.72369 -8.43714,-5.49441 -10.4474,-9.91999 -1.64764,-3.62727 -1.83799,-7.09304 -1.85771,-33.82349 -0.0239,-32.34325 0.24921,-34.25815 5.69603,-39.94476 3.34405,-3.49127 8.30082,-5.10492 15.47363,-5.03735 7.65067,0.0721 13.4289,3.26354 16.79581,9.2768 2.49587,4.4576 2.51462,4.67678 2.82119,32.97609 0.20494,18.91803 -0.0723,30.00422 -0.8252,33 -1.41807,5.64237 -5.29587,10.82738 -9.36524,12.52228 -3.65237,1.52122 -11.25696,2.52907 -14.11818,1.87111 z m 10.02881,-14.72664 c 2.24572,-3.20622 2.1693,-57.21371 -0.0855,-60.4329 -2.15346,-3.0745 -9.30647,-3.13961 -12.03831,-0.10959 -1.79609,1.99213 -1.88707,3.7495 -1.59152,30.74139 0.26362,24.07627 0.55849,28.89923 1.85443,30.33122 2.87855,3.18076 9.46799,2.88625 11.86091,-0.53012 z m 110.97119,14.83184 c -0.55,-0.1779 -2.67425,-0.60322 -4.72056,-0.94515 -4.74275,-0.79248 -9.55355,-4.83556 -11.89977,-10.00073 -1.6505,-3.63357 -1.83795,-7.11241 -1.85771,-34.47565 -0.0208,-28.87975 0.0851,-30.65543 2.07409,-34.76413 3.05832,-6.31765 9.04286,-9.57342 17.73912,-9.65061 11.04122,-0.098 17.53375,4.57794 20.22289,14.56462 0.65959,2.44955 0.93936,14.64419 0.74787,32.59896 -0.30408,28.51215 -0.32111,28.71255 -2.8185,33.17287 -1.59283,2.84476 -3.97221,5.27112 -6.5,6.62834 -3.77014,2.02426 -10.80093,3.57874 -12.98743,2.87148 z m 8.61507,-16.28992 c 0.57217,-1.50492 0.85142,-13.99121 0.6786,-30.34311 -0.32783,-31.01797 -0.31293,-30.95351 -7.19837,-31.14868 -2.52954,-0.0717 -4.32219,0.57707 -5.86867,2.12394 -2.1975,2.19804 -2.22663,2.59826 -2.22663,30.59434 0,26.22176 0.14025,28.52211 1.85443,30.41581 3.52504,3.89421 11.02253,2.92928 12.76064,-1.6423 z M 438.87187,380.71965 v -44.09377 l 14.25,0.34377 c 17.06056,0.41156 19.81226,1.49667 23.73715,9.36053 2.22702,4.46203 2.48311,6.18876 2.44845,16.5093 -0.0347,10.3282 -0.29317,11.98182 -2.48716,15.91141 -3.56215,6.38009 -6.76416,8.36576 -14.185,8.79661 -11.88246,0.6899 -10.76344,-1.31504 -10.76344,19.28496 v 17.98095 h -6.5 -6.5 z m 25.82467,-6.30071 c 2.19809,-2.19595 2.90059,-18.85616 0.95137,-22.56244 -1.40677,-2.67486 -7.51349,-4.56366 -11.52604,-3.56498 -2.19264,0.54572 -2.25,0.89946 -2.25,13.87428 0,7.32285 0.33749,13.65772 0.75,14.07749 1.28075,1.30331 10.30941,-0.0608 12.07467,-1.82435 z m 74.17532,6.32242 v -44.07204 l 14.93062,0.32204 c 13.22452,0.28525 15.24572,0.55765 17.68821,2.38384 5.77552,4.31822 6.78257,6.74343 7.20903,17.36099 0.45771,11.39554 -0.60508,15.64441 -4.98409,19.9257 l -3.04286,2.97496 2.51475,1.64773 c 4.31102,2.82469 5.67949,8.15225 5.72789,22.29907 0.024,7.00137 0.41705,14.66152 0.87355,17.02257 l 0.83001,4.29281 -6.62356,-0.29281 -6.62355,-0.29281 -0.51428,-16 c -0.32327,-10.05778 -0.97952,-16.82301 -1.76701,-18.21604 -0.72611,-1.28446 -2.95874,-2.67541 -5.31102,-3.30882 -7.66272,-2.06335 -7.37496,-2.76736 -7.67928,18.78781 l -0.2716,19.23705 h -6.4784 -6.47841 z m 25,-8.92795 c 1.69852,-1.69851 2,-3.33333 2,-10.84501 0,-10.6142 -1.11626,-12.22208 -8.66835,-12.48609 l -4.83165,-0.1689 -0.27988,12.75 -0.27987,12.75 h 5.02987 c 3.69655,0 5.56005,-0.53017 7.02988,-2 z m 36.76188,14.75 -0.26188,-38.25 -7.29857,-0.29479 -7.29856,-0.29479 0.29856,-5.70521 0.29857,-5.70521 20.75,-0.27029 20.75,-0.27029 v 5.9746 5.9746 l -6.75,0.29569 -6.75,0.29569 -0.26188,38.25 -0.26189,38.25 h -6.47623 -6.47623 z m 35.47772,-6 0.2604,-44.25 17.75,-0.27307 17.75,-0.27308 v 5.99032 5.99033 l -11.25,0.28275 -11.25,0.28275 v 12.5 12.5 l 8.75,0.28893 8.75,0.28894 v 5.96106 5.96107 h -9 -9 v 19.5 19.5 h -6.5104 -6.5104 z m 94.42707,43.58333 c -0.36667,-0.36666 -0.66667,-20.39166 -0.66667,-44.5 v -43.83333 h 6.48812 6.48811 l 0.26189,38.25 0.26188,38.25 11.25,0.28275 11.25,0.28275 v 5.96725 5.96725 h -17.33333 c -9.53334,0 -17.63334,-0.3 -18,-0.66667 z m 43.33333,-43.83333 v -44.5 h 6.5 6.5 v 44.5 44.5 h -6.5 -6.5 z M 259.20431,359.0235 c -20.69493,-7.39658 -27.05243,-32.41369 -12.33062,-48.52171 11.94534,-13.07011 30.17847,-13.66206 42.83069,-1.39054 6.11291,5.92896 8.39589,10.85864 8.94879,19.32312 0.59441,9.10003 -1.48472,15.62445 -6.96193,21.84689 -8.12181,9.22687 -21.24804,12.75914 -32.48693,8.74224 z"
       id="path1502" />
  </g>
</svg>
