<?xml version="1.0" encoding="UTF-8" standalone="no"?>
<!-- Created with Inkscape (http://www.inkscape.org/) -->

<svg
   version="1.1"
   id="svg2"
   width="636.84344"
   height="205.50363"
   viewBox="0 0 636.84345 205.50363"
   sodipodi:docname="Portfolio-logo.svg"
   inkscape:version="1.1.1 (1:1.1+202109281949+c3084ef5ed)"
   xmlns:inkscape="http://www.inkscape.org/namespaces/inkscape"
   xmlns:sodipodi="http://sodipodi.sourceforge.net/DTD/sodipodi-0.dtd"
   xmlns="http://www.w3.org/2000/svg"
   xmlns:svg="http://www.w3.org/2000/svg">
  <defs
     id="defs6" />
  <sodipodi:namedview
     id="namedview4"
     pagecolor="#ffffff"
     bordercolor="#666666"
     borderopacity="1.0"
     inkscape:pageshadow="2"
     inkscape:pageopacity="0.0"
     inkscape:pagecheckerboard="0"
     showgrid="false"
     inkscape:zoom="0.61481481"
     inkscape:cx="346.44579"
     inkscape:cy="272.43976"
     inkscape:window-width="1528"
     inkscape:window-height="836"
     inkscape:window-x="72"
     inkscape:window-y="27"
     inkscape:window-maximized="1"
     inkscape:current-layer="g8" />
  <g
     inkscape:groupmode="layer"
     inkscape:label="Image"
     id="g8"
     transform="translate(-193.12008,-396.87818)">
    <path
       style="fill:#2867b2;fill-opacity:1"
       d="m 419.09848,499.32279 c 0,-68.45136 0.3358,-102.85148 1,-102.44098 0.65613,0.40551 1,35.84372 1,103.05902 0,67.62732 -0.33984,102.44098 -1,102.44098 -0.6602,0 -1,-35.01967 -1,-103.05902 z m -127.12757,78.40533 c -1.05381,-1.26978 -1.37243,-5.93342 -1.37243,-20.08836 0,-18.16724 0.0342,-18.46239 2.36077,-20.3463 1.81385,-1.46876 3.95689,-1.91165 9.25,-1.91165 h 6.88923 v -3.46482 c 0,-4.75176 1.94069,-5.53518 13.71174,-5.53518 11.36983,0 14.28826,1.2371 14.28826,6.0567 v 2.9433 h 6.88922 c 5.29311,0 7.43615,0.44289 9.25,1.91165 2.32847,1.88548 2.36078,2.16712 2.36078,20.58061 0,17.32609 -0.13964,18.77106 -1.94113,20.08835 -1.57148,1.14909 -7.49917,1.41939 -31.12755,1.41939 -25.92914,0 -29.3396,-0.18456 -30.55889,-1.65369 z m 41.12757,-44.84631 v -2.5 h -10.5 -10.5 v 2.5 2.5 h 10.5 10.5 z m -88,38.39679 c -18.56726,-0.9853 -36.08761,-4.86706 -47.05748,-10.42591 -5.73206,-2.90466 -5.55273,-1.8365 -3.96054,-23.59068 1.00598,-13.74479 2.31769,-20.38584 5.14542,-26.0508 2.09189,-4.19078 3.31048,-4.7413 27.25511,-12.3127 15.34258,-4.85141 16.55804,-4.8874 16.60218,-0.49161 0.0175,1.73883 5.32265,23.7778 7.66084,31.82489 0.85498,2.94248 1.90449,4.96748 2.33222,4.5 0.42774,-0.46749 1.32128,-6.54503 1.98564,-13.50565 0.91116,-9.54641 0.92606,-13.18236 0.0606,-14.79946 -0.63104,-1.17908 -1.00708,-3.35902 -0.83567,-4.84432 0.28929,-2.50677 0.68918,-2.72227 5.57283,-3.0032 6.2559,-0.35987 7.0517,0.72286 5.50362,7.48799 -0.739,3.2294 -0.65612,7.84975 0.29609,16.50789 0.72728,6.61282 1.5417,12.2427 1.80984,12.51083 0.82025,0.82025 6.79726,-20.90367 9.61708,-34.95406 0.63468,-3.1625 1.54194,-5.75 2.01611,-5.75 1.95632,0 36.66576,11.40947 38.65993,12.70805 2.25982,1.47157 4.69869,5.85345 5.86744,10.54195 l 0.68553,2.75 h -7.53169 c -6.6438,0 -7.89439,0.30519 -10.60841,2.58889 -1.6922,1.4239 -3.07673,3.16592 -3.07673,3.87117 0,0.785 -1.95468,1.54158 -5.04025,1.95089 -6.83015,0.90605 -9.64668,2.34643 -11.98431,6.12879 -1.75324,2.83685 -1.97541,5.00846 -1.97541,19.30924 0,15.90607 -0.0289,16.11885 -2.25,16.57514 -4.26786,0.87676 -24.28409,1.1342 -36.75,0.47267 z m 247.56429,-27.97267 c -5.79245,-1.42767 -10.11953,-5.19971 -12.22501,-10.65692 -1.62841,-4.22065 -1.83928,-7.97737 -1.83928,-32.7672 0,-15.4 0.36293,-29.71435 0.80651,-31.80966 1.05553,-4.98603 6.8713,-11.36764 11.54195,-12.66494 8.45462,-2.34834 19.03324,-0.25648 23.36339,4.61997 4.60601,5.1871 5.17174,8.67615 5.58884,34.46871 0.23375,14.45495 -0.0368,27.40732 -0.65558,31.38167 -1.2388,7.95709 -4.51234,13.50156 -9.3179,15.78195 -4.41847,2.0967 -12.36217,2.85432 -17.26292,1.64642 z m 12.42231,-13.48216 c 1.28127,-1.28127 1.51339,-5.9398 1.51339,-30.37269 0,-26.97618 -0.1243,-28.99665 -1.90499,-30.96428 -1.27115,-1.40461 -3.10113,-2.0999 -5.49999,-2.08968 -7.82074,0.0333 -8.09501,1.12955 -8.09501,32.35385 0,14.9862 0.42817,27.62683 0.98545,29.09258 0.54201,1.42557 2.0045,3.01837 3.25,3.53956 2.86424,1.19856 7.77922,0.41259 9.75115,-1.55934 z m 181.51339,13.94009 c -1.1,-0.25296 -2.97782,-0.66727 -4.17293,-0.92069 -3.41278,-0.72369 -8.43714,-5.49441 -10.4474,-9.91999 -1.64764,-3.62727 -1.83799,-7.09304 -1.85771,-33.82349 -0.0239,-32.34325 0.24921,-34.25815 5.69603,-39.94476 3.34405,-3.49127 8.30082,-5.10492 15.47363,-5.03735 7.65067,0.0721 13.4289,3.26354 16.79581,9.2768 2.49587,4.4576 2.51462,4.67678 2.82119,32.97609 0.20494,18.91803 -0.0723,30.00422 -0.8252,33 -1.41807,5.64237 -5.29587,10.82738 -9.36524,12.52228 -3.65237,1.52122 -11.25696,2.52907 -14.11818,1.87111 z m 10.02881,-14.72664 c 2.24572,-3.20622 2.1693,-57.21371 -0.0855,-60.4329 -2.15346,-3.0745 -9.30647,-3.13961 -12.03831,-0.10959 -1.79609,1.99213 -1.88707,3.7495 -1.59152,30.74139 0.26362,24.07627 0.55849,28.89923 1.85443,30.33122 2.87855,3.18076 9.46799,2.88625 11.86091,-0.53012 z m 110.97119,14.83184 c -0.55,-0.1779 -2.67425,-0.60322 -4.72056,-0.94515 -4.74275,-0.79248 -9.55355,-4.83556 -11.89977,-10.00073 -1.6505,-3.63357 -1.83795,-7.11241 -1.85771,-34.47565 -0.0208,-28.87975 0.0851,-30.65543 2.07409,-34.76413 3.05832,-6.31765 9.04286,-9.57342 17.73912,-9.65061 11.04122,-0.098 17.53375,4.57794 20.22289,14.56462 0.65959,2.44955 0.93936,14.64419 0.74787,32.59896 -0.30408,28.51215 -0.32111,28.71255 -2.8185,33.17287 -1.59283,2.84476 -3.97221,5.27112 -6.5,6.62834 -3.77014,2.02426 -10.80093,3.57874 -12.98743,2.87148 z m 8.61507,-16.28992 c 0.57217,-1.50492 0.85142,-13.99121 0.6786,-30.34311 -0.32783,-31.01797 -0.31293,-30.95351 -7.19837,-31.14868 -2.52954,-0.0717 -4.32219,0.57707 -5.86867,2.12394 -2.1975,2.19804 -2.22663,2.59826 -2.22663,30.59434 0,26.22176 0.14025,28.52211 1.85443,30.41581 3.52504,3.89421 11.02253,2.92928 12.76064,-1.6423 z M 430.09848,499.28805 v -44.09377 l 14.25,0.34377 c 17.06056,0.41156 19.81226,1.49667 23.73715,9.36053 2.22702,4.46203 2.48311,6.18876 2.44845,16.5093 -0.0347,10.3282 -0.29317,11.98182 -2.48716,15.91141 -3.56215,6.38009 -6.76416,8.36576 -14.185,8.79661 -11.88246,0.6899 -10.76344,-1.31504 -10.76344,19.28496 v 17.98095 h -6.5 -6.5 z m 25.82467,-6.30071 c 2.19809,-2.19595 2.90059,-18.85616 0.95137,-22.56244 -1.40677,-2.67486 -7.51349,-4.56366 -11.52604,-3.56498 -2.19264,0.54572 -2.25,0.89946 -2.25,13.87428 0,7.32285 0.33749,13.65772 0.75,14.07749 1.28075,1.30331 10.30941,-0.0608 12.07467,-1.82435 z m 74.17532,6.32242 v -44.07204 l 14.93062,0.32204 c 13.22452,0.28525 15.24572,0.55765 17.68821,2.38384 5.77552,4.31822 6.78257,6.74343 7.20903,17.36099 0.45771,11.39554 -0.60508,15.64441 -4.98409,19.9257 l -3.04286,2.97496 2.51475,1.64773 c 4.31102,2.82469 5.67949,8.15225 5.72789,22.29907 0.024,7.00137 0.41705,14.66152 0.87355,17.02257 l 0.83001,4.29281 -6.62356,-0.29281 -6.62355,-0.29281 -0.51428,-16 c -0.32327,-10.05778 -0.97952,-16.82301 -1.76701,-18.21604 -0.72611,-1.28446 -2.95874,-2.67541 -5.31102,-3.30882 -7.66272,-2.06335 -7.37496,-2.76736 -7.67928,18.78781 l -0.2716,19.23705 h -6.4784 -6.47841 z m 25,-8.92795 c 1.69852,-1.69851 2,-3.33333 2,-10.84501 0,-10.6142 -1.11626,-12.22208 -8.66835,-12.48609 l -4.83165,-0.1689 -0.27988,12.75 -0.27987,12.75 h 5.02987 c 3.69655,0 5.56005,-0.53017 7.02988,-2 z m 36.76188,14.75 -0.26188,-38.25 -7.29857,-0.29479 -7.29856,-0.29479 0.29856,-5.70521 0.29857,-5.70521 20.75,-0.27029 20.75,-0.27029 v 5.9746 5.9746 l -6.75,0.29569 -6.75,0.29569 -0.26188,38.25 -0.26189,38.25 h -6.47623 -6.47623 z m 35.47772,-6 0.2604,-44.25 17.75,-0.27307 17.75,-0.27308 v 5.99032 5.99033 l -11.25,0.28275 -11.25,0.28275 v 12.5 12.5 l 8.75,0.28893 8.75,0.28894 v 5.96106 5.96107 h -9 -9 v 19.5 19.5 h -6.5104 -6.5104 z m 94.42707,43.58333 c -0.36667,-0.36666 -0.66667,-20.39166 -0.66667,-44.5 v -43.83333 h 6.48812 6.48811 l 0.26189,38.25 0.26188,38.25 11.25,0.28275 11.25,0.28275 v 5.96725 5.96725 h -17.33333 c -9.53334,0 -17.63334,-0.3 -18,-0.66667 z m 43.33333,-43.83333 v -44.5 h 6.5 6.5 v 44.5 44.5 h -6.5 -6.5 z M 250.43092,477.5919 c -20.69493,-7.39658 -27.05243,-32.41369 -12.33062,-48.52171 11.94534,-13.07011 30.17847,-13.66206 42.83069,-1.39054 6.11291,5.92896 8.39589,10.85864 8.94879,19.32312 0.59441,9.10003 -1.48472,15.62445 -6.96193,21.84689 -8.12181,9.22687 -21.24804,12.75914 -32.48693,8.74224 z"
       id="path1502" />
  </g>
</svg>
